{
    "asset" : {
        "generator" : "Khronos glTF Blender I/O v1.2.75",
        "version" : "2.0"
    },
    "scene" : 0,
    "scenes" : [
        {
            "name" : "Scene",
            "nodes" : [
                0,
                1,
                2
            ]
        }
    ],
    "nodes" : [
        {
            "mesh" : 0,
            "name" : "Bomb",
            "translation" : [
                0,
                0.01175469160079956,
                0
            ]
        },
        {
            "name" : "Lamp",
            "rotation" : [
                0.16907575726509094,
                0.7558803558349609,
                -0.27217137813568115,
                0.570947527885437
            ],
            "translation" : [
                1.5143213272094727,
                0.13297754526138306,
                -1.1041560173034668
            ]
        },
        {
            "name" : "Camera",
            "rotation" : [
                0.668180525302887,
                -0.11693594604730606,
                0.09992771595716476,
                0.7279253005981445
            ],
            "translation" : [
                -0.43173888325691223,
                0.149427130818367,
                0.9993759989738464
            ]
        }
    ],
    "materials" : [
        {
            "doubleSided" : true,
            "name" : "Fuze",
            "pbrMetallicRoughness" : {}
        },
        {
            "doubleSided" : true,
            "name" : "Metal",
            "pbrMetallicRoughness" : {}
        }
    ],
    "meshes" : [
        {
            "name" : "Bomb",
            "primitives" : [
                {
                    "attributes" : {
                        "POSITION" : 0,
                        "NORMAL" : 1,
                        "TEXCOORD_0" : 2,
                        "COLOR_0" : 3
                    },
                    "indices" : 4,
                    "material" : 0
                },
                {
                    "attributes" : {
                        "POSITION" : 5,
                        "NORMAL" : 6,
                        "TEXCOORD_0" : 7,
                        "COLOR_0" : 8
                    },
                    "indices" : 9,
                    "material" : 1
                }
            ]
        }
    ],
    "accessors" : [
        {
            "bufferView" : 0,
            "componentType" : 5126,
            "count" : 134,
            "max" : [
                0.01373771671205759,
                0.2593287527561188,
                0.01159651018679142
            ],
            "min" : [
                -0.03660372272133827,
                0.10974959284067154,
                -0.013712791725993156
            ],
            "type" : "VEC3"
        },
        {
            "bufferView" : 1,
            "componentType" : 5126,
            "count" : 134,
            "type" : "VEC3"
        },
        {
            "bufferView" : 2,
            "componentType" : 5126,
            "count" : 134,
            "type" : "VEC2"
        },
        {
            "bufferView" : 3,
            "componentType" : 5126,
            "count" : 134,
            "type" : "VEC4"
        },
        {
            "bufferView" : 4,
            "componentType" : 5123,
            "count" : 642,
            "type" : "SCALAR"
        },
        {
            "bufferView" : 5,
            "componentType" : 5126,
            "count" : 488,
            "max" : [
                0.15000000596046448,
                0.1800922304391861,
                0.15000000596046448
            ],
            "min" : [
                -0.15000000596046448,
                -0.16175469756126404,
                -0.15000000596046448
            ],
            "type" : "VEC3"
        },
        {
            "bufferView" : 6,
            "componentType" : 5126,
            "count" : 488,
            "type" : "VEC3"
        },
        {
            "bufferView" : 7,
            "componentType" : 5126,
            "count" : 488,
            "type" : "VEC2"
        },
        {
            "bufferView" : 8,
            "componentType" : 5126,
            "count" : 488,
            "type" : "VEC4"
        },
        {
            "bufferView" : 9,
            "componentType" : 5123,
            "count" : 2592,
            "type" : "SCALAR"
        }
    ],
    "bufferViews" : [
        {
            "buffer" : 0,
            "byteLength" : 1608,
            "byteOffset" : 0
        },
        {
            "buffer" : 0,
            "byteLength" : 1608,
            "byteOffset" : 1608
        },
        {
            "buffer" : 0,
            "byteLength" : 1072,
            "byteOffset" : 3216
        },
        {
            "buffer" : 0,
            "byteLength" : 2144,
            "byteOffset" : 4288
        },
        {
            "buffer" : 0,
            "byteLength" : 1284,
            "byteOffset" : 6432
        },
        {
            "buffer" : 0,
            "byteLength" : 5856,
            "byteOffset" : 7716
        },
        {
            "buffer" : 0,
            "byteLength" : 5856,
            "byteOffset" : 13572
        },
        {
            "buffer" : 0,
            "byteLength" : 3904,
            "byteOffset" : 19428
        },
        {
            "buffer" : 0,
            "byteLength" : 7808,
            "byteOffset" : 23332
        },
        {
            "buffer" : 0,
            "byteLength" : 5184,
            "byteOffset" : 31140
        }
    ],
    "buffers" : [
        {
            "byteLength" : 36324,
            "uri" : "Bomb.bin"
        }
    ]
}
